<svg xmlns="http://www.w3.org/2000/svg" viewBox="0 0 752 753"><defs><style>.cls-1{fill:#fff;}</style></defs><title>Asset 1</title><g id="Layer_2" data-name="Layer 2"><g id="Layer_1-2" data-name="Layer 1"><path class="cls-1" d="M752,390V753H390.5a9.43,9.43,0,0,1,1.61-.4c7.89-.57,15.8-.89,23.66-1.72a369.25,369.25,0,0,0,101.56-25.51A378.15,378.15,0,0,0,714.9,539.8a371.41,371.41,0,0,0,36.19-138.21C751.34,397.72,751.69,393.86,752,390Z"/><path class="cls-1" d="M362,753H0Q0,573.25,0,393.5a18.45,18.45,0,0,1,.42,2.38,366,366,0,0,0,5.25,46.87A375.91,375.91,0,0,0,350.91,752.08C354.61,752.33,358.3,752.69,362,753Z"/><path class="cls-1" d="M392.5,1H752V363.5a9.71,9.71,0,0,1-.4-1.64c-.53-7.47-.87-15-1.56-22.41A358.72,358.72,0,0,0,734.67,264a374.38,374.38,0,0,0-96.6-156.75,373.42,373.42,0,0,0-236-105.39C398.9,1.67,395.7,1.3,392.5,1Z"/><path class="cls-1" d="M0,360.5Q0,180.75,0,1H359a14,14,0,0,1-2.09.41,364.19,364.19,0,0,0-71,10.33Q179.44,38.3,103.54,117.56A374.49,374.49,0,0,0,.9,350.38C.67,353.76.3,357.13,0,360.5Z"/><path d="M0,359.74c.3-3.37.67-6.74.9-10.12a375,375,0,0,1,102.57-233q75.77-79.33,182.2-105.89a363.5,363.5,0,0,1,71-10.33A14,14,0,0,0,358.76,0h34c3.2.3,6.39.67,9.6.88a372.95,372.95,0,0,1,235.8,105.46,374.71,374.71,0,0,1,96.54,156.85A359.37,359.37,0,0,1,750,338.67c.69,7.46,1,15,1.56,22.43a9.73,9.73,0,0,0,.4,1.64v27c-.31,3.87-.66,7.73-.91,11.6A374.33,374.33,0,0,1,645,639.46a375.69,375.69,0,0,1-127.48,85.89A368.6,368.6,0,0,1,416,750.87c-7.85.83-15.76,1.15-23.65,1.72a9.42,9.42,0,0,0-1.61.4h-29c-3.69-.31-7.38-.67-11.08-.92a375.87,375.87,0,0,1-345-309.54,366.71,366.71,0,0,1-5.25-46.9A18.49,18.49,0,0,0,0,393.26Q0,376.5,0,359.74Zm748.92,17.13c-.18-205.43-165.26-370.73-368-373.32C171.65.88,3.18,169,2.54,375.21,1.9,583.86,170.09,748.11,372,749.84,582.69,751.65,749,581,748.92,376.87Z"/><path class="cls-1" d="M748.92,376.87C749,581,582.69,751.65,372,749.84,170.09,748.11,1.9,583.86,2.54,375.21,3.18,169,171.65.88,380.88,3.55,583.65,6.14,748.74,171.44,748.92,376.87ZM375.63,9.25C174.76,9.36,10.37,171.26,8.37,372.9,6.35,577.05,170.18,740.61,368.85,744c207.77,3.55,372.08-163.6,374.27-362.94C745.37,177.43,581,9.4,375.63,9.25Z"/><path d="M375.63,9.25C581,9.4,745.37,177.43,743.13,381.06,740.93,580.4,576.62,747.55,368.85,744,170.18,740.61,6.35,577.05,8.37,372.9,10.37,171.26,174.76,9.36,375.63,9.25ZM83.92,376.47c0,161.34,129,288.82,285.51,292,163.9,3.3,296-127.06,298.06-287.65a291.8,291.8,0,1,0-583.57-4.32ZM686.61,218.63l-1-2c-1.82-3.68-1.81-3.65-5.91-2.87-5,.94-10,1.81-15,2.73-3.78.7-7.56,1.42-11.34,2.13l-.22-.48L673.06,195l-3.44-5.39-33.76,16.88,2.56,4,25-12.77a5.8,5.8,0,0,1-1.27,2.4c-4.88,5.9-9.85,11.74-14.61,17.74-1,1.22-1.14,3.06-1.68,4.61l4.9.9a.76.76,0,0,0,.24,0l20.37-3.77c2.11-.39,4.22-.73,6.34-1.09l.14.5L653,235.47l2.49,4.19ZM137,129.81l24.94,27.93,3.35-3.32L146,132.81a6.23,6.23,0,0,1,3,.26c8.59,2.6,17.16,5.3,25.79,7.75a10.35,10.35,0,0,0,5.75,0c2.36-.78,2.47-2.23.81-4.1q-7-8-14.11-15.87L158,110.57l-3.68,3,19.4,21.65c-1.34-.31-2-.43-2.59-.6l-26.59-7.71C140.82,125.81,139.31,126.34,137,129.81Zm164,550-8.27,28.88c-.52-1.7-.87-2.72-1.15-3.76-2.4-8.74-4.68-17.51-7.25-26.2a10.24,10.24,0,0,0-3.25-4.68c-1.41-1.15-2.92-1-3.57,1.47-1.87,7-4,13.91-6,20.86-1.24,4.28-2.45,8.56-3.71,12.95l4.56,1.31,7.93-28c.49,1.48.83,2.38,1.09,3.31q3.58,12.86,7.12,25.73c.73,2.64,1.88,4.92,4.94,5.18a2.57,2.57,0,0,0,2.06-1.32c3.4-11.38,6.68-22.79,10-34.37ZM105.75,168.53c0,9.44,8,18.65,17.95,20.56,11.9,2.28,22.6-9.24,19-20.79-2.64-8.52-8.55-14-17.35-15.86C115.39,150.34,105.79,158.34,105.75,168.53ZM403,689c0,1,0,1.85,0,2.66.19,3.82.43,7.64.55,11.47a2.14,2.14,0,0,1-.84,1.71,7.77,7.77,0,0,1-10.63-4.53c-.91-2.31-1.5-4.75-2.23-7.13-1-3.16-2.76-4-6.12-2.59,2.43,5.84,2.17,12.87,8.25,17.07-.68.54-1.21.94-1.72,1.36-3.72,3.06-5,7.11-3.59,11.34,1.35,4,4.77,6.51,9.59,6.61a87.34,87.34,0,0,0,9.71-.32c3.34-.3,3.85-.89,3.7-4.29-.4-9-1-17.94-1.45-26.9-.12-2.13-.29-4.26-.44-6.44ZM76.41,303.89c-6.32.59-12.81-.86-18.29,3.51-.57-1.07-1-1.94-1.51-2.81-2.15-4.09-5.6-5.71-10.12-5.32A8.72,8.72,0,0,0,38.42,306c-1.31,4.58-2.06,9.32-3.09,14.16l37,7.53.75-4.83L57.77,319.5c.12-1.27.15-2.19.3-3.08.76-4.64,2.71-6.49,7.4-6.94,2.23-.21,4.48-.33,6.72-.43C76.63,308.87,76.83,308.65,76.41,303.89ZM599.94,161.22c1.63,3.58,3.25,4.18,6.42,2.71,2.11-1,4.26-1.87,6.35-2.89a2.11,2.11,0,0,1,3,.75c1.74,2.12,3.59,4.17,5.52,6.11,1.63,1.64,1.71,3.21.53,5.13-1.65,2.66-3.15,5.42-4.7,8.12l3.63,3.84c6.23-11,12.19-21.71,18.3-32.3,1-1.73,1-2.87-.34-4.34s-2.64-2.36-4.75-1.46C622.6,151.69,611.33,156.41,599.94,161.22ZM74.59,446.71c-2.48,1.64-4.83,3.18-7.16,4.75-7.66,5.16-15.29,10.36-23,15.48-1.84,1.23-2.63,2.64-1.88,4.82s2.21,2.88,4.35,3c11.13.61,22.25,1.31,33.38,2a16.55,16.55,0,0,0,2.13-.14c.4-3.26-.38-4.45-3.26-4.84-1.64-.23-3.32-.16-5-.22-4.62-.19-4.62-.19-5.86-4.62-2.36-8.4-2.36-8.4,4.79-13.13C76.16,451.78,76.51,450.39,74.59,446.71Zm6.09-155.88c2.26-3.29,2-4.9-1-7-1.09-.76-2.17-1.55-3.22-2.36-3.45-2.68-3.43-2.68-2-7,.52-1.58,1-3.18,1.44-4.77A4.85,4.85,0,0,1,81.1,266c1.82,0,3.64.31,5.47.38,3.42.13,4.78-1.56,4-5.48-11.94,0-24-.09-36,.14-1.28,0-2.91,1.74-3.68,3.07-.91,1.57,0,3.08,1.51,4.26,8.37,6.58,16.68,13.24,25,19.86C78.45,289.13,79.57,290,80.68,290.83ZM516.47,698.5c4-.69,5.37-2.25,5.54-5.84.2-4.28.51-8.56.81-13.44,3.89,2.82,7.29,5.2,10.59,7.7,3,2.3,5.22,2.24,8.21-.62-4.06-2.66-8-5.34-12.11-7.91-5.25-3.33-5.68-4.41-4.88-10.64.63-4.85.94-9.73,1.39-14.66-4,.62-5.33,2.16-5.46,5.77-.16,4.46-.37,8.91-.57,13.74-1-.58-1.66-.9-2.26-1.3-3.31-2.23-6.58-4.51-9.9-6.73-3-2-5.24-1.65-7.4,1.15,5,3.2,9.86,6.48,14.88,9.54a5.72,5.72,0,0,1,3,6.43C517.56,687.17,517.1,692.72,516.47,698.5Zm-314.65-19,20.08-32.06-18-11.24-2.17,3.46,13.62,8.78-7.06,11.21L195.85,652l-2,3.49,12.16,7.86-6.22,9.75-13.18-8-2,3.55Zm244,2.79-21,4,1.05,3.92,15.77-2.7,2.49,12.94-14.19,3,.77,3.86,14.33-2.44,2,11.36-15,3.06,1,4,19.86-3.82Zm50.63,25.28-11.82-36.05-4.58,1.45c1.13,3.72,2.05,7.25,3.3,10.65.81,2.21.6,3.38-1.8,4.31a34.14,34.14,0,0,0-7.2,3.92c-4.28,3-5.36,8.11-3.16,13.4,2.07,5,6,7.37,11.36,6.25C487.17,710.49,491.64,708.91,496.45,707.53Zm59.19-73.83-17.8,11.71,2.4,3.32L553.83,640l7.29,11.14L549,659.31l2.29,3.27,12.1-7.85,6.43,9.76L557,673.14l2.5,3.27,16.93-11.09Zm-220.73,75-1.68,11.37-15.24-2-.44,4.06,20.08,2.9,5.4-37.37-20.85-3c-.91,4-.91,4,2.93,4.64,4.07.68,8.15,1.29,12.37,2l-1.93,13L321,702.5v3.87ZM30.24,392H68v-4.8c-4,0-7.79-.07-11.58,0a2.46,2.46,0,0,1-2.5-2,72.6,72.6,0,0,0-2.21-9.7c-1.57-4.74-6-7-11.94-6.39a9.11,9.11,0,0,0-8.6,8.28C30.61,382.19,30.54,387,30.24,392Zm2.34,24.35c.43,4.16.47,8.09,1.31,11.84a9.17,9.17,0,0,0,7.9,7.37c5.2.85,9.15-1.74,11.18-7.38.9-2.5,1.41-5.14,2.38-7.6,1.32-3.35,3.75-4.62,7.11-4.09,2.83.45,4.8,2.61,5.07,6,.22,2.82.09,5.66.26,8.48,0,.64.63,1.71,1.06,1.76a3,3,0,0,0,2.35-.79,3.9,3.9,0,0,0,.67-2.57,96.07,96.07,0,0,0-.95-9.91,9.27,9.27,0,0,0-6-7.4c-5.54-2.18-11.09,0-13.47,5.51-1.31,3-2,6.33-3.34,9.38-1.56,3.67-5,4.8-8.19,2.93-2.41-1.42-2.7-3.87-2.82-6.31-.1-2.12,0-4.26,0-6.5Zm162-292.82c.4,4,1.17,4.54,4.5,2.82a53.06,53.06,0,0,0,7.87-4.76c4.31-3.27,5.48-7.42,3.75-11.86-1.84-4.73-5.62-7.16-11-6.76-2.89.21-5.75.84-8.63,1.26s-5.17-.71-6.29-3.3a5.26,5.26,0,0,1,2-6.8A37.69,37.69,0,0,1,192.71,91c1.35-.6,2.06-1.26,1.47-2.82a2,2,0,0,0-3.24-1.07,55.27,55.27,0,0,0-8.76,6.08c-2.9,2.7-3.49,6.36-1.93,10.12,1.84,4.42,6.53,6.45,12.4,5.56a65.36,65.36,0,0,1,7.91-.84,5.53,5.53,0,0,1,5.5,3.58,5.65,5.65,0,0,1-1.12,6.49,17.75,17.75,0,0,1-4.62,3.27A50.69,50.69,0,0,1,194.6,123.53Zm26.68,565.73c6.92,7.67,18.09,9.48,25.84,4.4,8-5.24,11.91-17,8.25-24.8-3.41-7.33-13.28-12.87-19.77-11l-.24,2.65c2.41.82,4.72,1.49,6.94,2.39,8,3.23,10.78,8.93,8.62,17.19-2.83,10.86-13.59,15.18-23.07,9.25-1.46-.92-2.86-1.95-4.46-3Zm357-567.88c.31,0,.52-.07.62,0q4.11,3.24,8.21,6.51c2.41,1.92,3.56,1.57,4.64-1.58l-10.52-8.73,7.68-9.55c3.23,2.6,6.32,5.11,9.43,7.6,2.57,2.06,3.79,1.62,4.61-1.75l-15.42-12.22L564,131.21l3.89,3ZM687.77,359.16c2.74-.14,5.24-.09,7.68-.44a23.79,23.79,0,0,1,15.63,2.85c4.83,2.73,9.95,5,15,7.46.3-4.85-.07-5.49-4-7.17l-14.65-6.33,14-8.21c3.12-1.82,3.77-4,2.15-7.19-5.55,3.49-11,7.17-16.67,10.42a28.74,28.74,0,0,1-19.55,3.17ZM74.54,210.43,62.05,235.17l3.62,1.92,5.45-10L101,242l2.15-4.46L73.34,222.46l4.93-10.28ZM683.76,305l32.49-7.66-1.15-4.81-36.67,8.55,4.73,20.39,4-1Zm18.34-51.7-35.29,13.47,2,4.57,35.13-13.41ZM118.74,210.23,87.08,190l-2.36,4.41,31.59,20.21ZM365.28,727l1.53-37.07-4.89-.5L360.25,727ZM32.74,348.29,70,351.89v-5l-37-3.64Z"/><path class="cls-1" d="M83.92,376.47a291.8,291.8,0,1,1,583.57,4.32C665.4,541.37,533.32,671.73,369.43,668.43,212.91,665.28,83.89,537.8,83.92,376.47ZM376,662.25c5.25,0,10.5.23,15.73,0A273.54,273.54,0,0,0,466.31,648a278,278,0,0,0,113.11-72.33,289.9,289.9,0,0,0,60-94.17,312.73,312.73,0,0,0,20.19-82.14c2.11-19.51,2.87-39,.75-58.59a261.14,261.14,0,0,0-29.55-95,301,301,0,0,0-59.48-77.57A284.76,284.76,0,0,0,497.58,117a272.49,272.49,0,0,0-98.43-25.64,293.25,293.25,0,0,0-82.47,5.35c-57.83,12.3-107.58,39.49-148.2,82.51-52.65,55.77-78.29,122.54-78.83,199a259.44,259.44,0,0,0,4.26,47.95c11.3,62.61,40,116,86.42,159.34C235.3,636.86,301,661.83,376,662.25Z"/><path class="cls-1" d="M686.61,218.63l-31.1,21L653,235.47,677.8,219l-.14-.5c-2.11.36-4.23.7-6.34,1.09L651,223.33a.76.76,0,0,1-.24,0l-4.9-.9c.54-1.55.72-3.39,1.68-4.61,4.76-6,9.73-11.84,14.61-17.74a5.8,5.8,0,0,0,1.27-2.4l-25,12.77-2.56-4,33.76-16.88,3.44,5.39-19.87,23.21.22.48c3.78-.71,7.56-1.43,11.34-2.13,5-.92,10-1.79,15-2.73,4.1-.77,4.09-.8,5.91,2.87Z"/><path class="cls-1" d="M137,129.81c2.3-3.47,3.81-4,7.54-2.92l26.59,7.71c.61.18,1.25.29,2.59.6l-19.4-21.65,3.68-3,9.19,10.32q7.06,7.93,14.11,15.87c1.66,1.88,1.56,3.32-.81,4.1a10.35,10.35,0,0,1-5.75,0c-8.63-2.45-17.2-5.15-25.79-7.75a6.23,6.23,0,0,0-3-.26l19.32,21.61-3.35,3.32Z"/><path class="cls-1" d="M301,679.84l4.53,1.3c-3.36,11.58-6.64,23-10,34.37a2.57,2.57,0,0,1-2.06,1.32c-3.06-.26-4.22-2.53-4.94-5.18q-3.53-12.87-7.12-25.73c-.26-.93-.6-1.83-1.09-3.31l-7.93,28-4.56-1.31c1.26-4.39,2.47-8.67,3.71-12.95,2-6.95,4.14-13.87,6-20.86.65-2.44,2.17-2.63,3.57-1.47a10.24,10.24,0,0,1,3.25,4.68c2.57,8.69,4.85,17.46,7.25,26.2.28,1,.63,2.06,1.15,3.76Z"/><path class="cls-1" d="M105.75,168.53c0-10.19,9.63-18.19,19.63-16.08,8.8,1.85,14.71,7.34,17.35,15.86,3.57,11.55-7.12,23.07-19,20.79C113.76,187.18,105.72,178,105.75,168.53Zm22.16,15.89a10.6,10.6,0,0,0,10.31-14.22c-2.56-7.46-8-11.73-15.61-13-7-1.19-13.38,5-12.46,11.67C111.21,176.72,119.95,184.38,127.91,184.42Z"/><path class="cls-1" d="M403,689h4.78c.15,2.19.32,4.32.44,6.44.5,9,1,17.93,1.45,26.9.15,3.41-.37,4-3.7,4.29a87.34,87.34,0,0,1-9.71.32c-4.82-.1-8.24-2.57-9.59-6.61-1.41-4.23-.13-8.28,3.59-11.34.51-.42,1-.82,1.72-1.36-6.08-4.19-5.82-11.23-8.25-17.07,3.37-1.4,5.15-.57,6.12,2.59.73,2.38,1.32,4.82,2.23,7.13a7.77,7.77,0,0,0,10.63,4.53,2.14,2.14,0,0,0,.84-1.71c-.12-3.82-.36-7.64-.55-11.47C403,690.85,403,690,403,689Zm1.53,20c-1.94.1-3.18.11-4.4.25a27.15,27.15,0,0,0-4.17.71c-3.5,1-4.84,3.19-4.27,6.77.71,4.42,1.93,5.55,6.36,5.79,1.33.07,2.67,0,4,.12,1.69.15,2.5-.52,2.49-2.23C404.56,716.64,404.58,712.92,404.58,709Z"/><path class="cls-1" d="M76.41,303.89c.43,4.76.23,5-4.21,5.17-2.24.1-4.49.21-6.72.43-4.69.45-6.63,2.3-7.4,6.94-.15.89-.18,1.81-.3,3.08l15.33,3.38-.75,4.83-37-7.53c1-4.84,1.78-9.58,3.09-14.16a8.72,8.72,0,0,1,8.07-6.75c4.52-.39,8,1.23,10.12,5.32.46.88.93,1.75,1.51,2.81C63.6,303,70.08,304.48,76.41,303.89ZM53.63,318.68c.45-2.6,1.21-5,1.21-7.44a6.8,6.8,0,0,0-9.26-6.64c-3.38,1.3-6.22,7.49-4.87,10.77a2,2,0,0,0,1.25,1C45.69,317.18,49.44,317.87,53.63,318.68Z"/><path class="cls-1" d="M599.94,161.22c11.4-4.81,22.66-9.53,33.89-14.32,2.11-.9,3.39-.06,4.75,1.46s1.34,2.61.34,4.34c-6.1,10.59-12.06,21.26-18.3,32.3L617,181.16c1.56-2.7,3.06-5.46,4.7-8.12,1.19-1.92,1.1-3.49-.53-5.13-1.93-1.95-3.78-4-5.52-6.11a2.11,2.11,0,0,0-3-.75c-2.09,1-4.24,1.9-6.35,2.89C603.19,165.4,601.57,164.79,599.94,161.22Zm25.5,5.49,8.19-14.41-.45-.36L618,158.59Z"/><path class="cls-1" d="M74.59,446.71c1.92,3.68,1.56,5.07-1.45,7.07C66,458.51,66,458.51,68.35,466.9c1.24,4.43,1.24,4.43,5.86,4.62,1.66.07,3.34,0,5,.22,2.89.4,3.66,1.59,3.26,4.84a16.55,16.55,0,0,1-2.13.14c-11.13-.65-22.25-1.34-33.38-2-2.15-.12-3.63-.89-4.35-3s0-3.6,1.88-4.82c7.68-5.12,15.31-10.32,23-15.48C69.77,449.89,72.12,448.35,74.59,446.71ZM62.4,460.93l-14.07,9.35.22.72H65.26Z"/><path class="cls-1" d="M80.68,290.83c-1.12-.86-2.24-1.69-3.33-2.56C69,281.64,60.71,275,52.34,268.4c-1.51-1.18-2.41-2.69-1.51-4.26.77-1.33,2.4-3,3.68-3.07,12-.23,24.09-.14,36-.14.81,3.92-.55,5.6-4,5.48-1.82-.07-3.64-.34-5.47-.38a4.85,4.85,0,0,0-5.23,3.72c-.48,1.59-.92,3.19-1.44,4.77-1.41,4.27-1.43,4.27,2,7,1,.82,2.13,1.6,3.22,2.36C82.67,285.92,82.95,287.54,80.68,290.83ZM69.56,276.31,73.17,266H56.12Z"/><path class="cls-1" d="M516.47,698.5c.62-5.78,1.09-11.32,1.87-16.82a5.72,5.72,0,0,0-3-6.43c-5-3.06-9.92-6.34-14.88-9.54,2.16-2.8,4.43-3.13,7.4-1.15,3.32,2.22,6.59,4.49,9.9,6.73.59.4,1.24.72,2.26,1.3.2-4.83.4-9.28.57-13.74.13-3.61,1.5-5.14,5.46-5.77-.46,4.93-.77,9.82-1.39,14.66-.81,6.24-.37,7.32,4.88,10.64,4.06,2.57,8,5.25,12.11,7.91-3,2.87-5.18,2.93-8.21.62-3.3-2.5-6.7-4.88-10.59-7.7-.3,4.88-.61,9.15-.81,13.44C521.84,696.25,520.5,697.81,516.47,698.5Z"/><path class="cls-1" d="M201.83,679.45l-17.13-10.8,2-3.55,13.18,8,6.22-9.75-12.16-7.86,2-3.49,12.5,7.64,7.06-11.21-13.62-8.78,2.17-3.46,18,11.24Z"/><path class="cls-1" d="M445.82,682.24l7,37.1L433,723.16l-1-4,15-3.06-2-11.36-14.33,2.44-.77-3.86,14.19-3-2.49-12.94-15.77,2.7-1.05-3.92Z"/><path class="cls-1" d="M496.45,707.53c-4.81,1.39-9.29,3-13.89,3.93-5.33,1.12-9.29-1.28-11.36-6.25-2.2-5.28-1.12-10.38,3.16-13.4a34.14,34.14,0,0,1,7.2-3.92c2.4-.93,2.61-2.1,1.8-4.31-1.25-3.4-2.17-6.93-3.3-10.65l4.58-1.45Zm-10.64-16.11c-5.4.33-9.35,2.66-10.25,6a9,9,0,0,0,3.22,9.11c2.73,1.82,7.5,1.11,11.47-1.79Z"/><path class="cls-1" d="M555.64,633.69l20.73,31.62L559.45,676.4l-2.5-3.27,12.91-8.64-6.43-9.76-12.1,7.85L549,659.31l12.09-8.14L553.83,640l-13.59,8.69-2.4-3.32Z"/><path class="cls-1" d="M334.91,708.72,321,706.37V702.5l14.56,1.73,1.93-13c-4.23-.67-8.31-1.28-12.37-2-3.84-.64-3.83-.67-2.93-4.64l20.85,3L337.64,725l-20.08-2.9.44-4.06,15.24,2Z"/><path class="cls-1" d="M30.24,392c.3-5,.37-9.81.93-14.57a9.11,9.11,0,0,1,8.6-8.28c5.91-.58,10.38,1.65,11.94,6.39a72.6,72.6,0,0,1,2.21,9.7,2.46,2.46,0,0,0,2.5,2c3.79-.1,7.59,0,11.58,0V392Zm19.23-4.76c0-2.14.12-4,0-5.78-.36-4.51-2.49-6.9-6.24-7-8.17-.2-9.91,4.69-8.62,11.19a2.8,2.8,0,0,0,2.14,1.52C40.86,387.32,45,387.24,49.47,387.24Z"/><path class="cls-1" d="M32.58,416.35l4.51.66c0,2.24-.08,4.38,0,6.5.12,2.44.41,4.88,2.82,6.31,3.18,1.88,6.63.75,8.19-2.93,1.29-3,2-6.34,3.34-9.38,2.37-5.51,7.93-7.69,13.47-5.51a9.27,9.27,0,0,1,6,7.4,96.07,96.07,0,0,1,.95,9.91,3.9,3.9,0,0,1-.67,2.57,3,3,0,0,1-2.35.79c-.43-.05-1-1.12-1.06-1.76-.17-2.82,0-5.66-.26-8.48-.27-3.35-2.24-5.51-5.07-6-3.36-.53-5.79.74-7.11,4.09-1,2.46-1.48,5.1-2.38,7.6-2,5.64-6,8.23-11.18,7.38a9.17,9.17,0,0,1-7.9-7.37C33,424.44,33,420.51,32.58,416.35Z"/><path class="cls-1" d="M194.6,123.53a50.69,50.69,0,0,0,5.71-2.16,17.75,17.75,0,0,0,4.62-3.27,5.65,5.65,0,0,0,1.12-6.49,5.53,5.53,0,0,0-5.5-3.58,65.36,65.36,0,0,0-7.91.84c-5.87.89-10.57-1.13-12.4-5.56-1.56-3.77-1-7.43,1.93-10.12a55.27,55.27,0,0,1,8.76-6.08,2,2,0,0,1,3.24,1.07c.59,1.56-.12,2.21-1.47,2.82a37.69,37.69,0,0,0-5.94,3.12,5.26,5.26,0,0,0-2,6.8c1.12,2.59,3.28,3.74,6.29,3.3s5.74-1,8.63-1.26c5.39-.4,9.17,2,11,6.76,1.72,4.44.56,8.59-3.75,11.86a53.06,53.06,0,0,1-7.87,4.76C195.77,128.07,195,127.53,194.6,123.53Z"/><path class="cls-1" d="M221.28,689.26l2.12-2.95c1.6,1.1,3,2.13,4.46,3,9.48,5.94,20.24,1.61,23.07-9.25,2.15-8.27-.67-14-8.62-17.19-2.22-.9-4.53-1.57-6.94-2.39l.24-2.65c6.49-1.87,16.36,3.66,19.77,11,3.65,7.85-.24,19.56-8.25,24.8C239.37,698.74,228.2,696.93,221.28,689.26Z"/><path class="cls-1" d="M578.24,121.38l-10.38,12.83-3.89-3,23.5-29.53L602.9,113.9c-.82,3.37-2,3.81-4.61,1.75-3.11-2.49-6.2-5-9.43-7.6l-7.68,9.55,10.52,8.73c-1.08,3.14-2.23,3.5-4.64,1.58q-4.09-3.27-8.21-6.51C578.76,121.32,578.55,121.38,578.24,121.38Z"/><path class="cls-1" d="M687.77,359.16l-.32-5.44A28.74,28.74,0,0,0,707,350.55c5.68-3.26,11.13-6.93,16.67-10.42,1.63,3.16,1,5.37-2.15,7.19l-14,8.21,14.65,6.33c3.88,1.68,4.25,2.33,4,7.17-5.1-2.5-10.21-4.73-15-7.46a23.79,23.79,0,0,0-15.63-2.85C693,359.06,690.51,359,687.77,359.16Z"/><path class="cls-1" d="M74.54,210.43l3.73,1.74-4.93,10.28,29.76,15.12L101,242l-29.84-14.9-5.45,10-3.62-1.92Z"/><path class="cls-1" d="M683.76,305l3.38,15.45-4,1-4.73-20.39,36.67-8.55,1.15,4.81Z"/><path class="cls-1" d="M702.1,253.29l1.8,4.62-35.13,13.41-2-4.57Z"/><path class="cls-1" d="M118.74,210.23l-2.43,4.34L84.72,194.36,87.08,190Z"/><path class="cls-1" d="M365.28,727h-5l1.67-37.57,4.89.5Z"/><path class="cls-1" d="M32.74,348.29l.24-5,37,3.64v5Z"/><path d="M376,662.25c-75-.42-140.73-25.39-195.7-76.68-46.46-43.35-75.12-96.73-86.42-159.34a259.44,259.44,0,0,1-4.26-47.95c.54-76.5,26.18-143.27,78.83-199,40.62-43,90.37-70.21,148.2-82.51a293.25,293.25,0,0,1,82.47-5.35A272.49,272.49,0,0,1,497.58,117a284.76,284.76,0,0,1,73.79,51.18,301,301,0,0,1,59.48,77.57,261.14,261.14,0,0,1,29.55,95c2.12,19.55,1.36,39.08-.75,58.59a312.73,312.73,0,0,1-20.19,82.14,289.9,289.9,0,0,1-60,94.17A278,278,0,0,1,466.31,648a273.54,273.54,0,0,1-74.55,14.24C386.53,662.48,381.28,662.25,376,662.25Zm79-434.68.52-.15c.46.66,1,1.28,1.36,2Q484,276,511,322.7a18.64,18.64,0,0,1,2.55,8.71c.14,17.41-.07,34.82-.21,52.22a6,6,0,0,0,3.39,5.83c15.49,8.62,30.88,17.39,46.39,26a20.94,20.94,0,0,1,8.16,8.13q25.18,43.12,50.52,86.15c.44.75.92,1.48,1.47,2.35,44.08-74.44,52-189.53-7.11-284.51C553.85,127.49,448.67,92,376.81,94.34c.92,1.65,1.71,3.17,2.59,4.64q24.25,40.92,48.53,81.82a18.76,18.76,0,0,1,2.92,9.66c0,6.91.15,13.83.15,20.74q0,59.62,0,119.23c0,2.58-.08,5.16,0,7.73a5.54,5.54,0,0,0,3.28,5c5.78,3.1,11.65,6,17.23,9.49a32.23,32.23,0,0,0,3.52,1.67ZM130.75,518c37.73,69.41,128.47,146.46,254.85,141.94,57.86-2.07,110.58-19.7,157.26-54.34,31.94-23.7,58.3-52.41,78.14-87.41-1.05,0-1.7-.1-2.34-.1q-47.24.08-94.48.16-32.13,0-64.26,0a24.88,24.88,0,0,1-7.33-1.13c-24.64-7.7-49.23-15.54-73.88-23.2a11,11,0,0,0-6.19-.09c-17.54,4.9-35.12,9.7-52.51,15.11-19,5.91-38.05,10.52-58.27,9.51-16.37-.82-32.81-.37-49.23-.39q-39.5-.06-79,0ZM128,512.21,372,94.06c-89.43-.26-191,48.41-245.32,148.05C77,333.25,86,441.76,128,512.21Zm316.47-94.71c-1.38-.88-2.23-1.49-3.14-2-20.17-11.33-40.26-22.81-60.59-33.84-5.06-2.75-6.87-5.82-6.85-11.66.22-61.66.09-123.32.07-185q0-40.75,0-81.49c0-.93-.09-1.87-.14-2.8l-.67-.18c-.65,1-1.35,2-1.95,3q-54,92.78-108,185.57Q198.68,400,134.15,510.92a13.34,13.34,0,0,0-.91,3.13,15.34,15.34,0,0,0,3-.3Q211.71,491,287.15,468.1l4.66-1.43V466l-48.52-15.59c.52-1.7.86-3.07,1.35-4.39q26.44-72.4,53-144.78a8,8,0,0,1,3-3.69c7.57-4.85,15.25-9.52,22.9-14.24.54-.33,1.13-.58,2-1-.43,3.35-.79,6.4-1.2,9.44q-4.13,30.69-8.28,61.37c-2.59,19.3-5.09,38.62-7.8,57.91-.33,2.33.19,3.19,2.36,3.87q30.22,9.5,60.39,19.18a16.7,16.7,0,0,0,9.58.25q23.89-6.28,47.78-12.53C433.56,420.49,438.74,419.06,444.51,417.49Zm13.06,47v.56L599.7,506.41l.28-.7c-1.45-.9-2.87-1.86-4.36-2.69q-45.05-25.27-90.11-50.55a9,9,0,0,0-7.62-.85c-12.13,3.82-24.3,7.52-36.45,11.3C460.11,463.33,458.86,464,457.58,464.52Z"/><path d="M127.91,184.42c-8,0-16.7-7.69-17.77-15.58-.91-6.71,5.49-12.86,12.46-11.67,7.64,1.3,13.06,5.57,15.61,13A10.6,10.6,0,0,1,127.91,184.42Z"/><path d="M404.58,709c0,4,0,7.68,0,11.4,0,1.71-.8,2.38-2.49,2.23-1.32-.11-2.66,0-4-.12-4.42-.24-5.65-1.37-6.36-5.79-.57-3.58.77-5.79,4.27-6.77a27.15,27.15,0,0,1,4.17-.71C401.4,709.08,402.64,709.07,404.58,709Z"/><path d="M53.63,318.68c-4.19-.81-7.94-1.5-11.67-2.28a2,2,0,0,1-1.25-1c-1.35-3.28,1.49-9.47,4.87-10.77a6.8,6.8,0,0,1,9.26,6.64C54.84,313.66,54.08,316.08,53.63,318.68Z"/><path d="M625.44,166.71l-7.4-8.11,15.14-6.65.45.36Z"/><path d="M62.4,460.93,65.26,471H48.55l-.22-.72Z"/><path d="M69.56,276.31,56.12,266H73.17Z"/><path d="M485.81,691.42l4.44,13.29c-4,2.9-8.74,3.61-11.47,1.79a9,9,0,0,1-3.22-9.11C476.47,694.08,480.41,691.74,485.81,691.42Z"/><path d="M49.47,387.24c-4.46,0-8.6.08-12.74-.07a2.8,2.8,0,0,1-2.14-1.52c-1.3-6.49.45-11.38,8.62-11.19,3.74.09,5.88,2.48,6.24,7C49.59,383.27,49.47,385.1,49.47,387.24Z"/><path class="cls-1" d="M455,227.57V354.29a32.23,32.23,0,0,1-3.52-1.67c-5.57-3.46-11.45-6.38-17.23-9.49a5.54,5.54,0,0,1-3.28-5c-.06-2.58,0-5.15,0-7.73q0-59.62,0-119.23c0-6.91-.13-13.83-.15-20.74a18.76,18.76,0,0,0-2.92-9.66Q403.63,139.9,379.39,99c-.87-1.47-1.67-3-2.59-4.64,71.86-2.3,177,33.16,239.31,133.22,59.11,95,51.2,210.07,7.11,284.51-.55-.87-1-1.6-1.47-2.35q-25.28-43.06-50.52-86.15a20.94,20.94,0,0,0-8.16-8.13c-15.5-8.59-30.9-17.36-46.39-26a6,6,0,0,1-3.39-5.83c.15-17.41.35-34.82.21-52.22A18.64,18.64,0,0,0,511,322.7Q484.08,276,456.88,229.4c-.4-.69-.9-1.32-1.36-2Z"/><path class="cls-1" d="M130.75,518h2.78q39.5,0,79,0c16.41,0,32.85-.43,49.23.39,20.22,1,39.25-3.6,58.27-9.51,17.39-5.41,35-10.21,52.51-15.11a11,11,0,0,1,6.19.09c24.65,7.66,49.24,15.5,73.88,23.2a24.88,24.88,0,0,0,7.33,1.13q32.13.13,64.26,0,47.24-.06,94.48-.16c.64,0,1.29.05,2.34.1-19.84,35-46.2,63.71-78.14,87.41-46.69,34.64-99.4,52.27-157.26,54.34C259.22,664.46,168.48,587.41,130.75,518Z"/><path class="cls-1" d="M128,512.21c-42-70.45-51.05-179-1.39-270.09C181,142.47,282.55,93.8,372,94.06Z"/><path class="cls-1" d="M444.51,417.49c-5.77,1.56-11,3-16.15,4.37q-23.89,6.28-47.78,12.53a16.7,16.7,0,0,1-9.58-.25q-30.17-9.66-60.39-19.18c-2.16-.68-2.68-1.55-2.36-3.87,2.7-19.29,5.21-38.6,7.8-57.91q4.12-30.69,8.28-61.37c.41-3,.78-6.09,1.2-9.44-.83.42-1.42.67-2,1-7.65,4.72-15.34,9.39-22.9,14.24a8,8,0,0,0-3,3.69q-26.57,72.36-53,144.78c-.48,1.32-.83,2.69-1.35,4.39L291.83,466v.62l-4.66,1.43q-75.45,22.84-150.91,45.65a15.34,15.34,0,0,1-3,.3,13.34,13.34,0,0,1,.91-3.13Q198.66,400,263.23,289.09q54-92.78,108-185.57c.6-1,1.3-2,1.95-3l.67.18c0,.93.14,1.87.14,2.8q0,40.75,0,81.49c0,61.66.15,123.32-.07,185,0,5.85,1.79,8.92,6.85,11.66,20.33,11,40.42,22.51,60.59,33.84C442.28,416,443.13,416.61,444.51,417.49ZM336.93,196.26l-.75-.14-25.24,69.15c5.46-2.91,10.39-6.14,15.39-9.26a6.47,6.47,0,0,0,3.23-5c1.93-14.42,3.93-28.83,5.89-43.25C336,203.93,336.44,200.1,336.93,196.26Z"/><path class="cls-1" d="M457.58,464.52c1.28-.54,2.54-1.18,3.86-1.6,12.15-3.78,24.32-7.47,36.45-11.3a9,9,0,0,1,7.62.85q45,25.31,90.11,50.55c1.49.84,2.91,1.79,4.36,2.69l-.28.7L457.59,465.08Z"/><path d="M336.93,196.26c-.49,3.84-1,7.67-1.48,11.51-2,14.42-4,28.83-5.89,43.25a6.47,6.47,0,0,1-3.23,5c-5,3.11-9.93,6.35-15.39,9.26l25.24-69.15Z"/></g></g></svg>